<svg version="1.2" xmlns="http://www.w3.org/2000/svg" viewBox="0 0 561 561" width="500" height="500">
	<title>character</title>
	<style>
		.s0 { fill: #ffffff;stroke: #000000;stroke-miterlimit:100;stroke-width: 14 } 
		.s1 { fill: #000000 } 
	</style>
	<g id="Folder 1">
		<path id="Shape 1" class="s0" d="m274.3 192.5c-47.2 0-85.3-38.1-85.3-85.3 0-47.1 38.1-85.2 85.3-85.2 47.1 0 85.2 38.1 85.2 85.3 0 47.1-38.1 85.2-85.3 85.2z"/>
		<path id="Shape 4 copy 2" class="s1" d="m296 108c-8.3 0-15-6.7-15-15 0-8.3 6.7-15 15-15 8.3 0 15 6.7 15 15 0 8.3-6.7 15-15 15z"/>
		<path id="Shape 4 copy" class="s1" d="m396 108c-8.3 0-15-6.7-15-15 0-8.3 6.7-15 15-15 8.3 0 15 6.7 15 15 0 8.3-6.7 15-15 15z"/>
	</g>
	<path id="Shape 5" class="s0" d="m220 224h107c33.1 0 60 26.9 60 60v231c0 11-9 20-20 20h-187c-11 0-20-9-20-20v-231c0-33.1 26.9-60 60-60z"/>
</svg>