<svg version="1.2" xmlns="http://www.w3.org/2000/svg" viewBox="0 0 249 249" width="249" height="249">
	<title>talkinghead</title>
	<style>
		.s0 { fill: #ffffff;stroke: #000000;stroke-miterlimit:100;stroke-width: 14 } 
		.s1 { fill: #000000 } 
	</style>
	<path id="Shape 1" class="s0" d="m103.3 209.5c-47.2 0-85.3-38.1-85.3-85.3 0-47.1 38.1-85.2 85.3-85.2 47.1 0 85.2 38.1 85.2 85.3 0 47.1-38.1 85.2-85.3 85.2z"/>
	<path id="Shape 2" class="s0" d=""/>
	<path id="Shape 3" class="s1" d="m125 125c-8.3 0-15-6.7-15-15 0-8.3 6.7-15 15-15 8.3 0 15 6.7 15 15 0 8.3-6.7 15-15 15zm0 0c-8.3 0-15-6.7-15-15 0-8.3 6.7-15 15-15 8.3 0 15 6.7 15 15 0 8.3-6.7 15-15 15z"/>
	<path id="Shape 3 copy" class="s1" d="m225 125c-8.3 0-15-6.7-15-15 0-8.3 6.7-15 15-15 8.3 0 15 6.7 15 15 0 8.3-6.7 15-15 15zm0 0c-8.3 0-15-6.7-15-15 0-8.3 6.7-15 15-15 8.3 0 15 6.7 15 15 0 8.3-6.7 15-15 15z"/>
</svg>