<svg version="1.2" xmlns="http://www.w3.org/2000/svg" viewBox="0 0 900 900" width="900" height="900">
	<title>thermos</title>
	<style>
		.s0 { fill: #d50014;stroke: #000000;paint-order:stroke fill markers;stroke-linejoin: round;stroke-width: 32 } 
		.s1 { fill: #2c2c2c;stroke: #000000;paint-order:stroke fill markers;stroke-linejoin: round;stroke-width: 32 } 
	</style>
	<path id="Shape 1" fill-rule="evenodd" class="s0" d="m580.1 823.4c-13.6 20.7-37.4 28.4-69.1 31.9l-122.7 0.2c-28.4-4.2-49.6-10.5-66.2-31l-1.1-584.8c34.9 5.8 82.5 9.3 135 9.3 46.7 0 89.6-2.8 123-7.5z"/>
	<path id="Shape 3" fill-rule="evenodd" class="s1" d="m332.6 104.7c0.2-12-0.9-21 0.2-24 1.2-3 27.1-18.7 57.2-27.9 29.1-8.9 61-8.8 61-8.8 0 0 33.4 0.3 64.2 9.5 22.5 6.8 24 5.8 43.6 18.8 6.1 4 9.4 3.8 11.2 9.7 1.8 5.9 0.4 13.4 0.7 26.8 0.2 8.5 0.2 17 0.3 21 2 0.9 3 1.8 3 2.7q0 0.3-0.1 0.5h0.6l4.9 89.9 0.6 18.5c-25.6 5.2-74.2 8.8-130 8.8-55.6 0-104.1-3.5-129.7-8.7l1.2-17.2q0.2 0 0.4-0.1l5.6-91.2h0.6q-0.1-0.2-0.1-0.5c0-1.1 1.4-2.1 4.1-3.2 0.1-4.6 0.4-14.6 0.5-24.6zm218.2-11.7c-2.3-4.5-18-10.2-37.2-16.2-29.8-9.2-62.2-9.6-62.2-9.6 0 0-28.8 0-55.5 7.6-23.2 6.6-37.4 12.6-42.3 18.2-4.7 5.3-2.3 27.4-1.7 32.1 22.4-3.1 58.4-5.1 99.1-5.1 41.3 0 77.8 2.1 100.1 5.2 0.3-4.5 1.8-28-0.3-32.2z"/>
</svg>